<?xml version="1.0" encoding="utf-8"?>
<svg width="64px" height="64px" viewBox="0 0 64 64" version="1.1" xmlns:xlink="http://www.w3.org/1999/xlink" xmlns="http://www.w3.org/2000/svg">
  <defs>
    <path d="M64 0L64 0L64 64L0 64L0 0L64 0Z" id="path_1" />
    <path d="M0 32C0 14.3269 14.3269 0 32 0C49.6731 0 64 14.3269 64 32C64 49.6731 49.6731 64 32 64C14.3269 64 0 49.6731 0 32Z" id="path_2" />
    <clipPath id="clip_1">
      <use xlink:href="#path_1" clip-rule="evenodd" fill-rule="evenodd" />
    </clipPath>
    <clipPath id="clip_2">
      <use xlink:href="#path_2" />
    </clipPath>
  </defs>
  <g id="Apple Logo">
    <path d="M64 0L64 0L64 64L0 64L0 0L64 0Z" id="Apple-Logo" fill="none" stroke="none" />
    <g id="Oval" clip-path="url(#clip_1)">
      <use stroke="none" fill="#FFFFFF" xlink:href="#path_2" fill-rule="evenodd" />
      <g clip-path="url(#clip_2)">
        <use xlink:href="#path_2" fill="none" stroke="#808080" stroke-opacity="0.47843137" stroke-width="2" />
      </g>
    </g>
    <g id="Oval" clip-path="url(#clip_1)">
      <use stroke="none" fill="#FFFFFF" xlink:href="#path_2" fill-rule="evenodd" />
      <g clip-path="url(#clip_2)">
        <use xlink:href="#path_2" fill="none" stroke="#808080" stroke-opacity="0.47843137" stroke-width="2" />
      </g>
    </g>
    <path d="M39.4654 10C39.6303 12.1354 38.8523 13.8549 37.7043 15.1161C36.0162 16.9713 33.5279 17.8359 32.0603 17.5791C31.7842 16.0971 32.4691 14.2053 33.8603 12.6808C35.1725 11.245 37.1105 10.135 39.4654 10L39.4654 10ZM31.2533 22.4833C32.9274 22.4833 34.7401 20.9641 37.7256 20.9641C39.0706 20.9641 42.9274 21.3283 45.0531 24.2557C44.2087 24.8034 41.0878 26.5614 41.0878 30.5639C41.0878 35.2793 45.354 36.9112 46 37.21C45.7668 37.9894 44.6423 40.6912 42.7458 42.8073C42.1587 43.4619 40.3955 45.9759 37.7625 45.9759C35.3714 45.9759 34.4613 44.6511 31.7023 44.6511C28.5593 44.6511 28.4092 45.9999 25.352 45.9999C24.71 45.9999 23.7684 45.7401 23.0218 45.1521C20.3714 43.0629 16 37.6624 16 30.9263C16 24.2707 20.9303 21.0757 25.2541 21.0757C27.9723 21.0751 29.523 22.4833 31.2533 22.4833L31.2533 22.4833Z" id="Shape" fill="#000000" fill-rule="evenodd" stroke="none" clip-path="url(#clip_1)" />
    <path d="M39.4654 10C39.6303 12.1354 38.8523 13.8549 37.7043 15.1161C36.0162 16.9713 33.5279 17.8359 32.0603 17.5791C31.7842 16.0971 32.4691 14.2053 33.8603 12.6808C35.1725 11.245 37.1105 10.135 39.4654 10L39.4654 10ZM31.2533 22.4833C32.9274 22.4833 34.7401 20.9641 37.7256 20.9641C39.0706 20.9641 42.9274 21.3283 45.0531 24.2557C44.2087 24.8034 41.0878 26.5614 41.0878 30.5639C41.0878 35.2793 45.354 36.9112 46 37.21C45.7668 37.9894 44.6423 40.6912 42.7458 42.8073C42.1587 43.4619 40.3955 45.9759 37.7625 45.9759C35.3714 45.9759 34.4613 44.6511 31.7023 44.6511C28.5593 44.6511 28.4092 45.9999 25.352 45.9999C24.71 45.9999 23.7684 45.7401 23.0218 45.1521C20.3714 43.0629 16 37.6624 16 30.9263C16 24.2707 20.9303 21.0757 25.2541 21.0757C27.9723 21.0751 29.523 22.4833 31.2533 22.4833L31.2533 22.4833Z" id="Shape" fill="#000000" fill-rule="evenodd" stroke="none" clip-path="url(#clip_1)" />
  </g>
</svg>