<?xml version="1.0" encoding="utf-8"?>
<svg width="20px" height="20px" viewBox="0 0 30 33.999756" version="1.1" xmlns:xlink="http://www.w3.org/1999/xlink" xmlns="http://www.w3.org/2000/svg">
  <path d="M23.4654 0C23.6303 2.13536 22.8523 3.85493 21.7043 5.11611C20.0162 6.97127 17.5279 7.83586 16.0603 7.57906C15.7842 6.09709 16.4691 4.20532 17.8603 2.68075C19.1725 1.24498 21.1105 0.134997 23.4654 0L23.4654 0ZM15.2533 10.4833C16.9274 10.4833 18.7401 8.96411 21.7256 8.96411C23.0706 8.96411 26.9274 9.3283 29.0531 12.2557C28.2087 12.8034 25.0878 14.5614 25.0878 18.5639C25.0878 23.2793 29.354 24.9112 30 25.21C29.7668 25.9894 28.6423 28.6912 26.7458 30.8073C26.1587 31.4619 24.3955 33.9759 21.7625 33.9759C19.3714 33.9759 18.4613 32.6511 15.7023 32.6511C12.5593 32.6511 12.4092 33.9999 9.35196 33.9999C8.70996 33.9999 7.7684 33.7401 7.02185 33.1521C4.3714 31.0629 1.90735e-06 25.6624 1.90735e-06 18.9263C1.90735e-06 12.2707 4.93031 9.07571 9.25412 9.07571C11.9723 9.07511 13.523 10.4833 15.2533 10.4833L15.2533 10.4833Z" id="Shape" fill="#e0e0e0" fill-rule="evenodd" stroke="none" />
</svg>